<svg width="358" height="34" viewBox="0 0 358 34" fill="none" xmlns="http://www.w3.org/2000/svg">
<path d="M20.276 5.844V28.956H9.908V32.556H33.56V28.956H23.984V5.844H32.336V2.28H11.672V5.844H20.276ZM3.968 0.803998L1.304 3.36C4.112 5.196 6.236 6.924 7.748 8.544L10.34 5.916C8.612 4.224 6.488 2.532 3.968 0.803998ZM2.996 9.408L0.368 11.964C3.104 13.836 5.228 15.564 6.74 17.22L9.332 14.628C7.604 12.9 5.516 11.136 2.996 9.408ZM6.56 19.128C4.94 23.448 2.996 27.696 0.764 31.836L4.22 33.384C6.308 29.352 8.18 25.032 9.872 20.424L6.56 19.128ZM36.764 1.632V5.304H47.168V9.624H38.708V33.564H42.488V32.232H63.584V33.564H67.364V9.624H58.688V5.304H69.236V1.632H36.764ZM42.488 28.704V23.88L45.008 26.076C48.824 23.412 50.804 19.164 50.876 13.332V13.152H54.98V19.668C54.98 22.404 56.276 23.808 58.94 23.808H63.584V28.704H42.488ZM50.876 5.304H54.98V9.624H50.876V5.304ZM42.488 23.196V13.152H47.168V13.332C47.096 17.796 45.548 21.072 42.488 23.196ZM58.688 13.152H63.584V20.388H60.092C59.156 20.388 58.688 19.812 58.688 18.732V13.152ZM73.376 9.192V12.792H81.62C79.892 18.984 76.76 23.808 72.152 27.192L74.528 30.288C80 26.184 83.6 20.136 85.328 12.144V9.192H73.376ZM100.88 5.844C98.72 8.76 96.344 11.352 93.716 13.656C92.78 11.856 91.916 9.948 91.196 7.86V0.372H87.38V28.632C87.38 29.64 86.984 30.18 86.228 30.18C84.86 30.18 83.42 30.072 81.908 29.928L82.736 33.6H87.524C89.972 33.6 91.196 32.268 91.196 29.604V15.564C93.86 21.036 98 26.076 103.616 30.72L105.956 27.264C101.708 24.456 98.216 20.892 95.444 16.572C98.36 14.268 101.168 11.46 103.904 8.112L100.88 5.844ZM108.944 9.732V13.368H115.532V13.44C113.912 17.04 111.392 20.28 108.008 23.16L109.736 27.588C112.04 25.14 113.948 22.512 115.532 19.632V33.744H119.348V18.228C120.572 19.596 122.084 21.396 123.848 23.664L126.044 20.28C123.776 18.048 121.544 16.068 119.348 14.268V13.368H125.72V9.732H119.348V5.376C121.4 4.872 123.416 4.224 125.36 3.504L123.524 0.407999C119.96 1.812 115.172 2.784 109.16 3.288L110.312 6.744C112.04 6.6 113.804 6.42 115.532 6.132V9.732H108.944ZM127.952 3.792V25.788H131.696V3.792H127.952ZM136.304 33.42C138.824 33.42 140.084 32.088 140.084 29.46V0.551999H136.268V28.488C136.268 29.496 135.836 30 135.008 30C133.46 30 131.84 29.928 130.148 29.784L130.94 33.42H136.304ZM171.656 33.456C174.5 33.456 175.94 32.016 175.94 29.172V1.92H158.876V5.376H172.268V28.128C172.268 29.388 171.8 30.036 170.9 30.036L167.768 29.928L168.776 33.456H171.656ZM145.988 6.42V33.78H149.66V6.42H145.988ZM152.36 0.0479994L148.94 1.596C150.524 3.504 152 5.7 153.332 8.22L156.716 6.456C155.456 4.116 154.016 1.992 152.36 0.0479994ZM206.972 8.148V13.872H187.748V8.148H206.972ZM187.712 17.544H210.788V4.476H199.376C198.8 2.856 198.26 1.416 197.684 0.119998L193.652 0.767999C194.336 1.92 194.948 3.144 195.524 4.476H184.04V16.428C184.004 22.548 182.636 27.552 179.972 31.404L182.78 33.96C185.876 29.352 187.496 23.88 187.712 17.544ZM218.78 2.244V5.88H225.008V13.548C225.008 13.764 224.972 13.944 224.972 14.16H216.944V17.796H224.72C224.432 20.244 223.964 22.368 223.316 24.168C222.308 26.688 220.364 28.812 217.448 30.504L219.5 33.708C222.704 32.088 225.008 29.748 226.412 26.724C227.456 24.312 228.176 21.324 228.536 17.796H237.86V33.24H241.64V17.796H249.092V14.16H241.64V5.88H247.292V2.244H218.78ZM228.824 5.88H237.86V14.16H228.788C228.788 13.944 228.824 13.764 228.824 13.548V5.88ZM252.836 5.448V9.084H256.184V11.82C256.112 20.712 254.744 27.156 252.008 31.152L254.96 33.744C257.48 29.928 258.992 24.276 259.496 16.788H262.988C262.916 23.412 262.808 27.3 262.664 28.38C262.448 29.46 261.8 30.036 260.684 30.036C259.856 30.036 258.92 29.964 257.84 29.892L258.704 33.096C259.928 33.24 260.756 33.312 261.26 33.312C263.924 33.312 265.508 32.34 265.976 30.396L267.992 33.6C271.268 31.728 274.004 29.46 276.2 26.76C278.108 29.28 280.376 31.548 283.004 33.6L285.56 30.576C282.788 28.488 280.412 26.148 278.396 23.484C280.664 19.452 281.96 14.7 282.248 9.156H284.552V5.52H274.724C275.12 4.08 275.48 2.604 275.768 1.02L272.096 0.372C271.124 6.168 269.252 10.776 266.516 14.232L268.748 17.04C270.656 14.916 272.24 12.288 273.5 9.156H278.72C278.504 13.26 277.604 16.86 276.092 19.992C274.976 18.084 274.04 16.032 273.32 13.8L270.368 15.456C271.304 18.3 272.492 20.964 274.004 23.484C271.988 26.184 269.36 28.38 266.048 30.072C266.336 27.984 266.516 22.404 266.516 13.332H259.64C259.64 12.828 259.676 12.324 259.676 11.82V9.084H268.064V5.448H262.916C262.34 3.792 261.62 2.028 260.72 0.0839989L257.084 1.092C257.84 2.496 258.524 3.936 259.136 5.448H252.836ZM290.348 1.704V5.376H302.948V17.76H288.908V21.396H302.948V33.708H306.764V21.396H321.092V17.76H306.764V5.376H319.76V1.704H290.348ZM295.64 6.816L292.148 8.508C293.444 10.884 294.704 13.584 295.856 16.572L299.384 14.844C298.16 11.892 296.936 9.228 295.64 6.816ZM314.684 6.672C313.712 9.3 312.416 11.964 310.76 14.628L314.144 16.356C315.764 13.764 317.096 11.064 318.104 8.292L314.684 6.672ZM353.42 18.372H328.58V33.816H332.396V32.448H349.604V33.816H353.42V18.372ZM332.396 28.848V21.972H349.604V28.848H332.396ZM326.312 15.168C335.492 14.844 343.844 14.34 351.332 13.656C352.16 15.024 352.988 16.428 353.78 17.904L357.452 16.104C354.86 11.748 352.16 7.788 349.28 4.188L345.86 5.808C346.976 7.212 348.092 8.724 349.172 10.308C343.628 10.812 337.94 11.208 332.108 11.496C335.06 8.76 337.904 5.448 340.676 1.632L336.788 0.263999C331.892 7.428 328.148 11.208 325.628 11.604L326.312 15.168Z" fill="#40A9FF"/>
</svg>
