<?xml version="1.0" encoding="iso-8859-1"?>
<!-- Generator: Adobe Illustrator 23.0.1, SVG Export Plug-In . SVG Version: 6.00 Build 0)  -->
<svg version="1.1" id="&#x56FE;&#x5C42;_1" xmlns="http://www.w3.org/2000/svg" xmlns:xlink="http://www.w3.org/1999/xlink" x="0px"
	 y="0px" viewBox="0 0 124.719 124.724" style="enable-background:new 0 0 124.719 124.724;" xml:space="preserve">
<g>
	<linearGradient id="SVGID_1_" gradientUnits="userSpaceOnUse" x1="25.4757" y1="80.4657" x2="37.0125" y2="80.4657">
		<stop  offset="0" style="stop-color:#1A8E55"/>
		<stop  offset="0.859" style="stop-color:#2BA76E"/>
	</linearGradient>
	<path style="fill:url(#SVGID_1_);" d="M37.012,70.672c-0.968,8.651-3.573,18.242-7.717,19.391c-1.412,0.393-2.228,0.091-2.47-0.03
		c-0.05-0.02-0.08-0.04-0.08-0.04c-1.2-0.797-1.684-1.946-0.857-3.589c0.534-1.079,1.27-2.259,1.785-2.985
		c2.621-3.67,1.885-3.166,1.885-3.166s-0.615,0.595-1.25,1.422c-1.049,1.371-2.47,2.904-1.351,1.049
		C26.957,82.723,24.459,82.258,37.012,70.672z"/>
	<linearGradient id="SVGID_2_" gradientUnits="userSpaceOnUse" x1="21.3809" y1="84.2987" x2="124.5881" y2="84.2987">
		<stop  offset="0" style="stop-color:#1A8E55"/>
		<stop  offset="0.859" style="stop-color:#2BA76E"/>
	</linearGradient>
	<path style="fill:url(#SVGID_2_);" d="M30.72,108.161c5.451-3.172,9.716-7.393,12.984-21.101
		c3.016-12.65,2.097-12.271,2.591-13.904c0.161-0.555,0.444,0.464-0.131,5.152C45.247,85.718,42.837,93.3,43.15,93.27
		c0.595-0.06,2.833-7.27,3.711-14.58c0.797-6.614,0.202-13.087,0.171-13.632c-0.03-0.484-0.05-1.067-0.081-1.55v-0.04l5.767-5.336
		c-1.099,14.156-0.444,22.132,0.03,27.647c0.726,8.52,2.621,14.287,2.874,14.197c0.242-0.101-0.625-5.888-0.061-5.969
		c0.222-0.03,0.575,0,1.563,3.136c0.383,1.18,1.079,4.84,1.553,6.14c1.492,4.003,3.388,8.167,3.842,10.063
		c0.897,3.751,2.813,7.118,0.393-6.292c-0.252-1.391-0.857-2.632-1.139-4.406c-2.854-17.937-2.188-17.131-1.664-17.362
		c0.978-0.424,0.635,5.727,2.42,13.38c1.079,4.628,1.492,5.656,2.228,7.734c0.484,1.361,1.401,3.085,2.107,6.705
		c0.363,1.855,0.998,1.553,1.311,2.228c0.887,1.926,1.906,4.991,2.077,3.791c0.121-0.827,0.565-1.875-0.756-5.616
		c-1.381-3.892-1.129-4.416-1.946-9.579c-1.039-6.634-1.876-13.743-0.676-13.854c0.736-0.071,1.109,3.71,2.077,7.34
		c0.363,1.371,0.575,1.442,0.958,2.611c0.635,1.936,1.059,4.709,1.543,4.567c0.444-0.131-5.596-20.518-1.744-50.666
		c0.716-0.605,1.432-1.22,1.533-1.341c0.232-0.313-1.381,0.676-1.17,0.373c0.242-0.363,1.411-1.543,4.568-3.811
		c0.272-0.192-0.323,0.756-0.071,0.545c2.087-1.785,3.499-2.702,3.519-2.49c0.061,0.464-3.509,3.509-2.974,3.62
		c0.333,0.06,1.895-1.089,5.989-4.305c5.939-4.658,4.81-1.744,4.81-1.744c-4.578,18.925-6.637,31.516-5.649,36.87
		c0.454,2.44,1.422,4.789,3.005,6.695c11.948,14.358,36.543-14.93,41.322-21.726c-1.845,27.355-21.718,51.18-49.889,56.867
		c-19.762,3.993-39.212-1.835-53.318-14.116c3.105,0.464,5.667,0.267,8.571-0.852C29.952,108.51,30.538,108.267,30.72,108.161z"/>
	<linearGradient id="SVGID_3_" gradientUnits="userSpaceOnUse" x1="0" y1="47.1568" x2="124.6277" y2="47.1568">
		<stop  offset="0" style="stop-color:#1B539C"/>
		<stop  offset="1" style="stop-color:#2676B4"/>
	</linearGradient>
	<path style="fill:url(#SVGID_3_);" d="M124.628,58.939c0,0.006-0.002,0.013-0.007,0.017c-11.668,11.789-11.447,10.207-11.598,9.904
		c-0.151-0.302,1.446-1.667,3.973-4.084c1.585-1.516,2.077-3.186,1.22-2.49c-0.665,0.544-2.875,2.956-17.197,12.601
		c-17.518,11.797-4.875-32.252-4.008-41.438c0.788-8.384-17.198,6.363-26.479,13.967l0.536-2.291
		c2.057-11.182,8.268-26.558,4.295-33.676c-0.061-0.111-0.716,2.188-1.17,2.037c-0.353-0.111,0.444-2.964,0.282-3.166
		c-0.171-0.222-1.996,4.951-2.793,4.719c-0.817-0.242,0.615-6.534,0.383-6.705c-0.403-0.282-0.232-0.212-1.049-0.585
		c-1.22-0.565-2.42-0.797-3.66-0.676c-0.504,0.05-1.855,4.013-2.41,4.023c-0.494,0.01,0.262-3.6-0.181-3.388
		c-2.672,1.27-4.931,4.013-5.546,7.028c-0.595,2.874-1.644,7.491-1.976,9.367c-2.48,13.661-3.841,25.185-4.517,33.967
		c0,0.001-0.001,0.002-0.001,0.003l-5.917,3.76c-0.03-0.353-0.071-0.706-0.111-1.059c-0.655-5.243-1.694-12.271-5.011-14.62
		c-0.383-0.272-0.121,1.684-0.192,1.764c-0.202,0.212,1.709,4.939,1.27,5.031c-0.357,0.075-0.371-1.18-0.721-1.157
		c-0.282,0.02-0.521-1.719-0.804-1.667c-0.255,0.047,0.323,1.234-0.048,1.281c-0.859,0.11-1.192-0.564-2.751-4.391
		c-0.492-1.881-0.899-4.084-0.697-4.946c0.258-1.102-0.381-2.271-0.817-3.105c-0.93-1.78,0.361-0.368,1.781,1.588
		c1.524,2.1,0.679,0.013,0.679,0.013c-3.327-7.209-7.806-12.3-14.044-9.183c-2.338,1.168-2.611,2.974-2.924,4.325
		c-0.515,2.755,0.867,5.213,3.226,6.594c1.694,0.988,3.005,0.907,4.446,0.948c0,0,2.272,0.252,3.611,1.123
		c1.75,1.139,1.875,1.442,2.349,2.242c0.327,0.551,0.627,1.532,0.693,1.821c0.229,0.997,0.398,2.045,0.416,2.397
		c0.141,3.62,0.262,5.243,0.081,12.876c-0.03,1.361-0.101,2.803-0.202,4.285c-7.14,4.846-9.585,6.743-18.512,14.882
		c-2.301,2.098-8.9,9.504-9.707,11.438c-0.001,0.003-0.005,0.003-0.006,0c-3.537-5.907-6.127-12.499-7.569-19.615
		C-5.57,40.94,16.269,8.051,50.026,1.245c33.757-6.816,66.637,15.023,73.453,48.78C124.083,53.006,124.456,55.987,124.628,58.939z"
		/>
	<path style="fill:#2C70AA;" d="M124.719,63.496c0,0-0.02,0-0.03,0.01c-0.202,0.101-0.423,0.585-0.655,0.837
		c-1.049,1.149-2.289,2.349-3.106,2.833c-1.906,1.139,0.222-1.553,0.222-1.553c2.833-2.954,2.702-3.912,3.529-5.404
		C124.729,61.318,124.729,62.407,124.719,63.496z"/>
</g>
</svg>
